<?xml version="1.0" encoding="UTF-8" standalone="no"?>
<!-- Generator: Adobe Illustrator 16.0.0, SVG Export Plug-In . SVG Version: 6.00 Build 0)  -->

<svg
   xmlns:dc="http://purl.org/dc/elements/1.1/"
   xmlns:cc="http://creativecommons.org/ns#"
   xmlns:rdf="http://www.w3.org/1999/02/22-rdf-syntax-ns#"
   xmlns:svg="http://www.w3.org/2000/svg"
   xmlns="http://www.w3.org/2000/svg"
   xmlns:sodipodi="http://sodipodi.sourceforge.net/DTD/sodipodi-0.dtd"
   xmlns:inkscape="http://www.inkscape.org/namespaces/inkscape"
   version="1.1"
   id="Capa_1"
   x="0px"
   y="0px"
   width="59.29105"
   height="59.29105"
   viewBox="0 0 59.291052 59.291047"
   xml:space="preserve"
   sodipodi:docname="iconCalibration-mark.svg"
   inkscape:version="0.92.4 (5da689c313, 2019-01-14)"><metadata
   id="metadata41"><rdf:RDF><cc:Work
       rdf:about=""><dc:format>image/svg+xml</dc:format><dc:type
         rdf:resource="http://purl.org/dc/dcmitype/StillImage" /><dc:title></dc:title></cc:Work></rdf:RDF></metadata><defs
   id="defs39" /><sodipodi:namedview
   pagecolor="#ffffff"
   bordercolor="#666666"
   borderopacity="1"
   objecttolerance="10"
   gridtolerance="10"
   guidetolerance="10"
   inkscape:pageopacity="0"
   inkscape:pageshadow="2"
   inkscape:window-width="1842"
   inkscape:window-height="1051"
   id="namedview37"
   showgrid="false"
   inkscape:zoom="11.2"
   inkscape:cx="46.157864"
   inkscape:cy="28.566497"
   inkscape:window-x="-9"
   inkscape:window-y="-9"
   inkscape:window-maximized="1"
   inkscape:current-layer="g4"
   fit-margin-top="0"
   fit-margin-left="0"
   fit-margin-right="0"
   fit-margin-bottom="0" />
<g
   id="g4"
   transform="scale(0.11390625)">
	<path
   d="M 481.686,254.21 C 478.5,140.55 386.245,48.826 272.368,46.515 V 0 H 260.263 V 46.601 C 147.92,50.611 57.426,141.655 54.272,254.21 H 0 v 12.105 h 54.272 c 3.154,112.554 93.647,203.603 205.99,207.61 v 46.6 h 12.105 V 474.007 C 386.244,471.702 478.5,379.979 481.685,266.315 h 38.84 V 254.21 Z M 260.263,58.706 v 61.779 C 188.338,124.159 130.779,182.129 127.711,254.21 H 66.378 C 69.52,148.325 154.596,62.699 260.263,58.706 Z m 0,403.114 C 154.596,457.824 69.52,372.201 66.378,266.315 h 61.333 c 3.068,72.082 60.626,130.049 132.552,133.726 z m 0,-154.732 v -40.27 H 220.49 v -13.116 h 39.773 v -39.271 h 13.116 v 39.271 h 39.773 v 13.116 h -39.773 v 40.27 z m 12.105,154.815 v -61.792 c 73.033,-2.494 131.869,-60.91 134.967,-133.796 h 62.246 C 466.407,373.307 379.572,459.598 272.368,461.903 Z M 407.334,254.21 C 404.23,181.325 345.4,122.911 272.367,120.423 V 58.626 c 107.204,2.3 194.039,88.594 197.213,195.584 z m -133.961,12.608 h -13.116 v -13.116 h 13.116 z"
   id="path2"
   inkscape:connector-curvature="0"
   style="stroke:none;stroke-opacity:1;fill:#4caf50;fill-opacity:1" />
</g>
<g
   id="g6"
   transform="matrix(0.6075,0,0,0.6075,-128.46394,-128.46394)">
</g>
<g
   id="g8"
   transform="matrix(0.6075,0,0,0.6075,-128.46394,-128.46394)">
</g>
<g
   id="g10"
   transform="matrix(0.6075,0,0,0.6075,-128.46394,-128.46394)">
</g>
<g
   id="g12"
   transform="matrix(0.6075,0,0,0.6075,-128.46394,-128.46394)">
</g>
<g
   id="g14"
   transform="matrix(0.6075,0,0,0.6075,-128.46394,-128.46394)">
</g>
<g
   id="g16"
   transform="matrix(0.6075,0,0,0.6075,-128.46394,-128.46394)">
</g>
<g
   id="g18"
   transform="matrix(0.6075,0,0,0.6075,-128.46394,-128.46394)">
</g>
<g
   id="g20"
   transform="matrix(0.6075,0,0,0.6075,-128.46394,-128.46394)">
</g>
<g
   id="g22"
   transform="matrix(0.6075,0,0,0.6075,-128.46394,-128.46394)">
</g>
<g
   id="g24"
   transform="matrix(0.6075,0,0,0.6075,-128.46394,-128.46394)">
</g>
<g
   id="g26"
   transform="matrix(0.6075,0,0,0.6075,-128.46394,-128.46394)">
</g>
<g
   id="g28"
   transform="matrix(0.6075,0,0,0.6075,-128.46394,-128.46394)">
</g>
<g
   id="g30"
   transform="matrix(0.6075,0,0,0.6075,-128.46394,-128.46394)">
</g>
<g
   id="g32"
   transform="matrix(0.6075,0,0,0.6075,-128.46394,-128.46394)">
</g>
<g
   id="g34"
   transform="matrix(0.6075,0,0,0.6075,-128.46394,-128.46394)">
</g>
</svg>