<?xml version="1.0" encoding="UTF-8" standalone="no"?>
<!-- Created with Inkscape (http://www.inkscape.org/) -->

<svg
   xmlns:dc="http://purl.org/dc/elements/1.1/"
   xmlns:cc="http://creativecommons.org/ns#"
   xmlns:rdf="http://www.w3.org/1999/02/22-rdf-syntax-ns#"
   xmlns:svg="http://www.w3.org/2000/svg"
   xmlns="http://www.w3.org/2000/svg"
   xmlns:sodipodi="http://sodipodi.sourceforge.net/DTD/sodipodi-0.dtd"
   xmlns:inkscape="http://www.inkscape.org/namespaces/inkscape"
   width="17.897364mm"
   height="18.255907mm"
   viewBox="0 0 17.897364 18.255908"
   version="1.1"
   id="svg4461"
   inkscape:version="0.92.4 (5da689c313, 2019-01-14)"
   sodipodi:docname="iconPuzzle.svg"
   inkscape:export-filename="C:\Users\lunea\Documents\pa3\slideDeck\iconPuzzle-Assemblage.png"
   inkscape:export-xdpi="96"
   inkscape:export-ydpi="96">
  <defs
     id="defs4455" />
  <sodipodi:namedview
     id="base"
     pagecolor="#ffffff"
     bordercolor="#666666"
     borderopacity="1.0"
     inkscape:pageopacity="0.0"
     inkscape:pageshadow="2"
     inkscape:zoom="11.2"
     inkscape:cx="37.530562"
     inkscape:cy="34.843935"
     inkscape:document-units="mm"
     inkscape:current-layer="layer1"
     showgrid="false"
     fit-margin-top="0"
     fit-margin-left="0"
     fit-margin-right="0"
     fit-margin-bottom="0"
     inkscape:window-width="1842"
     inkscape:window-height="1051"
     inkscape:window-x="-9"
     inkscape:window-y="-9"
     inkscape:window-maximized="1" />
  <metadata
     id="metadata4458">
    <rdf:RDF>
      <cc:Work
         rdf:about="">
        <dc:format>image/svg+xml</dc:format>
        <dc:type
           rdf:resource="http://purl.org/dc/dcmitype/StillImage" />
        <dc:title></dc:title>
      </cc:Work>
    </rdf:RDF>
  </metadata>
  <g
     inkscape:label="Calque 1"
     inkscape:groupmode="layer"
     id="layer1"
     transform="translate(-148.6809,-69.762394)">
    <path
       style="fill:#4caf50;fill-opacity:1;stroke-width:0.09525"
       d="m 157.78443,87.833767 c -0.0771,-0.121978 -0.23682,-0.491763 -0.35491,-0.821736 -0.16939,-0.473299 -0.24685,-0.586297 -0.36694,-0.535255 -0.0837,0.03559 -0.37464,0.08563 -0.64648,0.111208 -0.65618,0.06174 -1.27595,-0.229471 -1.63136,-0.766519 -0.20874,-0.315441 -0.25565,-0.495308 -0.25565,-0.980381 0,-0.506675 0.0424,-0.65482 0.28818,-1.007082 0.23937,-0.343069 0.63482,-0.64035 1.0266,-0.771743 0.042,-0.01411 -0.0945,-0.502961 -0.30343,-1.086322 -0.35395,-0.988052 -0.36897,-1.070532 -0.2194,-1.204927 0.23293,-0.209309 2.18799,-0.923764 2.35376,-0.860155 0.0772,0.02964 0.14041,0.16784 0.14041,0.307119 0,0.385214 0.31056,0.882155 0.67263,1.076339 1.08188,0.580217 2.06952,-0.492332 1.56509,-1.699631 -0.0987,-0.236245 -0.11341,-0.37988 -0.047,-0.459843 0.0911,-0.109769 1.63707,-0.819328 2.04796,-0.939954 0.10477,-0.03076 0.23818,-0.02476 0.29649,0.01334 0.0583,0.0381 0.33011,0.669338 0.60404,1.402763 l 0.49805,1.3335 1.39621,0.956427 c 1.02169,0.69988 1.44087,1.044798 1.56274,1.285875 0.14367,0.28422 0.16656,0.620396 0.1667,2.44876 l 1.4e-4,2.119311 h -0.28575 -0.28575 v -2.054135 c 0,-1.206716 -0.0399,-2.128617 -0.0966,-2.234676 -0.11386,-0.212741 -1.8896,-1.471966 -1.96684,-1.394731 -0.0291,0.02908 0.0694,0.366082 0.21883,0.748896 0.19129,0.490052 0.27681,0.889135 0.28901,1.348596 0.0148,0.557649 0.0541,0.693815 0.26993,0.936104 0.26076,0.292666 0.25922,0.515708 -0.005,0.616817 -0.10582,0.04061 -0.48838,-0.274894 -1.27305,-1.049909 -0.61699,-0.609378 -1.17139,-1.10796 -1.23201,-1.10796 -0.14013,0 -0.49124,0.347294 -0.49124,0.485883 0,0.05769 0.2774,0.404498 0.61643,0.770696 0.41329,0.446383 0.63655,0.772966 0.67744,0.990954 0.0971,0.517429 0.53714,1.042209 1.03268,1.231457 0.37188,0.14202 0.43569,0.204865 0.43569,0.429077 0,0.259517 -0.005,0.261594 -0.40197,0.172368 -0.67365,-0.151362 -1.2294,-0.61402 -1.5536,-1.293349 -0.005,-0.01253 -0.18994,0.04755 -0.40878,0.133512 -0.45391,0.1783 -0.49635,0.32229 -0.16857,0.571896 0.18351,0.139737 0.21267,0.217454 0.14594,0.388944 -0.1173,0.30151 -0.24721,0.269532 -0.6855,-0.168761 l -0.38307,-0.383073 -1.43929,0.540036 c -0.7916,0.297018 -1.48967,0.55849 -1.55126,0.581044 -0.0616,0.02254 -0.17506,-0.0588 -0.25218,-0.180778 z m 2.46271,-1.271376 c 1.04607,-0.393921 1.96144,-0.737742 2.03415,-0.764049 0.0905,-0.03273 -0.0507,-0.238277 -0.44718,-0.651186 -0.78198,-0.814356 -0.87754,-1.3043 -0.35609,-1.825749 0.51927,-0.519271 0.97738,-0.430805 1.81196,0.349909 0.46702,0.436864 0.62206,0.537044 0.62453,0.403528 0.005,-0.27564 -1.84506,-5.178199 -1.9543,-5.178508 -0.0533,-1.98e-4 -0.36658,0.11421 -0.69623,0.254136 -0.58992,0.250401 -0.59818,0.259036 -0.52429,0.547961 0.35474,1.387161 -0.72431,2.560952 -2.11449,2.300152 -0.41534,-0.07792 -1.0265,-0.604797 -1.19629,-1.031317 -0.0675,-0.169693 -0.1344,-0.323935 -0.14855,-0.34276 -0.047,-0.0626 -1.37014,0.478105 -1.37014,0.559932 0,0.04424 0.13309,0.436963 0.29577,0.872734 0.45631,1.222365 0.47209,1.296716 0.30987,1.458941 -0.0787,0.07865 -0.27281,0.142995 -0.43146,0.142995 -0.37908,0 -0.93168,0.536278 -0.94715,0.919163 -0.0283,0.698666 0.15526,1.087508 0.61648,1.306368 0.43467,0.206266 0.67321,0.196441 1.16241,-0.04788 0.22422,-0.11198 0.46938,-0.179919 0.54481,-0.150975 0.0754,0.02894 0.26026,0.399168 0.41075,0.822724 0.1505,0.423555 0.31859,0.770101 0.37355,0.770101 0.0549,0 0.95581,-0.3223 2.00189,-0.71622 z m -10.19858,-1.956906 c -0.15926,-0.04631 -0.50272,-0.193681 -0.71916,-0.378948 -0.23063,-0.197415 -0.34964,-0.350815 -0.45295,-0.626933 -0.22159,-0.592281 -0.20489,-1.942901 -0.18435,-6.528415 l 0.0267,-5.968796 c 7.2e-4,-0.201636 0.16985,-0.548092 0.50318,-0.826308 0.33333,-0.278217 0.74975,-0.474916 0.92557,-0.475851 l 5.66738,-0.03011 c 4.07934,-0.02167 5.8116,0.0012 6.18209,0.08155 0.68041,0.147599 1.35046,0.786464 1.51652,1.445939 0.15798,0.627401 0.15587,5.992907 -0.003,6.151197 -0.0734,0.07335 -0.44873,0.1143 -1.04775,0.1143 -0.78304,0 -0.93345,0.02399 -0.93345,0.14891 0,0.110117 -0.079,0.141133 -0.30328,0.119062 -0.24432,-0.02404 -0.31773,-0.0843 -0.37762,-0.309919 -0.12054,-0.454238 0.0167,-0.520349 1.14241,-0.550235 l 1.01487,-0.02695 v -2.762253 c 0,-3.066757 -0.013,-3.13996 -0.64151,-3.588177 -0.30611,-0.218343 -0.35452,-0.222259 -3.08532,-0.249646 -2.41868,-0.02425 -2.7815,-0.0092 -2.83023,0.117816 -0.0308,0.0801 -0.0298,0.424807 0.002,0.766011 0.045,0.481653 0.0921,0.620491 0.21085,0.620902 0.66518,0.0023 1.53266,0.608687 1.73113,1.210086 0.16722,0.506672 0.0553,1.309764 -0.23594,1.691463 -0.29808,0.390803 -0.94918,0.717419 -1.43017,0.717419 -0.29016,0 -0.34975,0.02961 -0.3033,0.150667 0.0319,0.08286 0.0578,0.424315 0.0578,0.758777 v 0.608112 l 1.02394,0.02704 1.02394,0.02704 v 0.619125 c 0,0.704679 0.17595,1.057353 0.62719,1.257087 0.28189,0.12478 0.34345,0.301277 0.18977,0.544051 -0.071,0.112152 -0.13357,0.114141 -0.37998,0.01208 -0.57056,-0.236337 -1.05388,-1.012038 -1.05557,-1.69415 -3.6e-4,-0.203752 -0.0369,-0.214322 -0.73872,-0.214507 l -0.73819,-1.98e-4 0.0297,1.043263 c 0.0392,1.379961 0.004,1.4429 -0.77754,1.369964 -0.59214,-0.0553 -0.60789,-0.05062 -0.93704,0.278546 -0.54903,0.549023 -0.56137,1.199616 -0.0328,1.728198 0.25401,0.254009 0.28877,0.338867 0.21059,0.514073 -0.0515,0.115415 -0.14111,0.209846 -0.19912,0.209846 -0.18817,0 -0.64472,-0.494275 -0.82673,-0.895038 -0.23973,-0.527893 -0.22622,-0.883825 0.0548,-1.4437 0.29513,-0.587924 0.75841,-0.913497 1.38564,-0.973767 l 0.47336,-0.04549 v -0.892756 -0.892756 h -0.94471 c -1.27454,0 -1.26677,0.0043 -1.19131,-0.662617 0.10081,-0.891081 -0.33059,-1.432884 -1.14089,-1.432884 -0.8137,0 -1.23218,0.513412 -1.18328,1.451728 l 0.031,0.596148 -1.07157,0.02693 -1.07156,0.02694 3.6e-4,2.782942 c 3.6e-4,2.622729 0.0114,2.801084 0.19247,3.098045 0.35518,0.582556 0.75464,0.680555 2.78375,0.682931 l 1.7859,0.0021 v 0.28575 0.28575 l -1.83354,-0.0085 c -1.00849,-0.0048 -1.96388,-0.04648 -2.12313,-0.09278 z m 0.71816,-7.988674 c 0,-0.671167 0.36709,-1.270529 0.97158,-1.58633 0.30376,-0.15869 1.09543,-0.176436 1.47491,-0.03307 0.60464,0.22845 1.07776,0.887844 1.07776,1.502102 0,0.436476 0.10358,0.48871 0.97319,0.490788 l 0.54457,0.0013 0.0269,-1.071563 0.0269,-1.071562 0.61913,-0.002 c 0.67527,-0.0022 0.92864,-0.102311 1.23085,-0.486514 0.23451,-0.298119 0.26178,-0.87381 0.0599,-1.264218 -0.25486,-0.49286 -0.86871,-0.746965 -1.37669,-0.569883 -0.50715,0.176795 -0.5808,0.02898 -0.5808,-1.165692 v -1.036087 h -2.68455 c -2.52054,0 -2.70944,0.01205 -3.09203,0.197258 -0.46723,0.226182 -0.77085,0.654325 -0.80576,1.136242 -0.0133,0.183356 -0.0165,1.434369 -0.007,2.780027 l 0.0171,2.446652 0.30957,0.03842 c 0.17026,0.02113 0.51316,0.04527 0.76199,0.05366 l 0.45245,0.01525 z"
       id="path5017"
       inkscape:connector-curvature="0"
       sodipodi:nodetypes="ccccssccsccssccccccssccccsccsccccsscccsscsccscccccsccssccccsccsccscccccssccscszsscccssccscscscccscscscccssccccccccccscsccccsssccccccccccccccccsccccscccscscccccccc" />
  </g>
</svg>
