<?xml version="1.0" encoding="UTF-8" standalone="no"?>
<!-- Created with Inkscape (http://www.inkscape.org/) -->

<svg
   xmlns:dc="http://purl.org/dc/elements/1.1/"
   xmlns:cc="http://creativecommons.org/ns#"
   xmlns:rdf="http://www.w3.org/1999/02/22-rdf-syntax-ns#"
   xmlns:svg="http://www.w3.org/2000/svg"
   xmlns="http://www.w3.org/2000/svg"
   xmlns:sodipodi="http://sodipodi.sourceforge.net/DTD/sodipodi-0.dtd"
   xmlns:inkscape="http://www.inkscape.org/namespaces/inkscape"
   width="18.4314mm"
   height="18.262106mm"
   viewBox="0 0 18.431401 18.262106"
   version="1.1"
   id="svg2392"
   inkscape:version="0.92.4 (5da689c313, 2019-01-14)"
   sodipodi:docname="iconRobustDesign.svg">
  <defs
     id="defs2386" />
  <sodipodi:namedview
     id="base"
     pagecolor="#ffffff"
     bordercolor="#666666"
     borderopacity="1.0"
     inkscape:pageopacity="0.0"
     inkscape:pageshadow="2"
     inkscape:zoom="11.2"
     inkscape:cx="51.235693"
     inkscape:cy="33.614228"
     inkscape:document-units="mm"
     inkscape:current-layer="layer1"
     showgrid="false"
     fit-margin-top="0"
     fit-margin-left="0"
     fit-margin-right="0"
     fit-margin-bottom="0"
     inkscape:window-width="1842"
     inkscape:window-height="1051"
     inkscape:window-x="-9"
     inkscape:window-y="-9"
     inkscape:window-maximized="1" />
  <metadata
     id="metadata2389">
    <rdf:RDF>
      <cc:Work
         rdf:about="">
        <dc:format>image/svg+xml</dc:format>
        <dc:type
           rdf:resource="http://purl.org/dc/dcmitype/StillImage" />
        <dc:title></dc:title>
      </cc:Work>
    </rdf:RDF>
  </metadata>
  <g
     inkscape:label="Calque 1"
     inkscape:groupmode="layer"
     id="layer1"
     transform="translate(-78.273415,-53.936564)">
    <path
       style="fill:#4caf50;stroke-width:0.09260418;fill-opacity:1"
       d="m 87.184775,72.141639 -0.06173,-18.205075 0.995498,0.04169 c 1.197133,0.05013 1.394045,0.133288 1.470718,0.639469 0.128609,0.849051 0.764975,0.879192 1.438097,1.102113 0.699934,0.2318 0.766116,0.339752 1.150849,0.04631 0.166936,-0.127329 0.378249,-0.256355 0.461521,-0.23151 1.107298,0.330379 2.105876,1.816505 2.447277,2.293613 0.175994,0.245955 0.231983,0.337671 -0.0926,0.66972 -0.152796,0.156309 -0.300748,0.371418 -0.277813,0.472302 0.114244,0.502538 0.443079,0.910377 0.58141,1.338478 0.215376,0.666538 0.239064,0.688676 0.920734,0.82612 0.429685,0.08664 0.489122,0.324763 0.485965,1.947006 -0.0014,0.970713 -0.04102,1.549918 -0.113421,1.679583 -0.07498,0.134245 -0.262563,0.18165 -0.54935,0.278082 -0.667082,0.224306 -0.951492,1.048894 -1.270832,1.805183 -0.147921,0.354029 -0.09448,0.503272 0.333438,0.931191 0.09222,0.09222 0.167681,0.209299 0.167681,0.260167 -0.589844,0.724102 -1.55793,2.15621 -2.494516,2.471937 -0.152467,0.0387 -0.359772,-0.01878 -0.638796,-0.177104 l -0.413077,-0.234386 -0.685947,0.312595 c -0.643813,0.299979 -1.348972,0.307921 -1.439921,1.011723 -0.02653,0.235526 -0.08423,0.463861 -0.128188,0.50741 -0.185846,0.184126 -2.134436,0.365945 -2.286987,0.213393 z m 1.030995,-0.97543 c 0.06112,-0.06112 0.111125,-0.202354 0.111125,-0.313856 0,-0.362481 0.292863,-0.555212 1.234769,-0.812593 1.003943,-0.274332 1.673826,-0.579405 2.061801,-0.938967 0.365403,-0.338647 0.626461,-0.376846 1.013757,-0.148336 0.437609,0.258196 0.606676,0.246094 0.904484,-0.06475 0.293934,-0.3068 0.311003,-0.535266 0.06362,-0.851521 -0.0996,-0.127331 -0.182017,-0.276499 -0.183148,-0.331487 -0.001,-0.05499 0.229828,-0.544008 0.513251,-1.086715 0.340749,-0.652482 0.586082,-1.277377 0.724227,-1.844711 l 0.208915,-0.857972 0.501186,-0.168326 c 0.577188,-0.19385 0.639922,-0.264539 0.641858,-0.723226 0.0018,-0.384685 -0.120341,-0.517233 -0.55614,-0.604393 -0.359156,-0.07183 -0.646289,-0.290622 -0.64631,-0.492474 -0.271019,-1.008969 -0.510464,-1.975988 -1.069327,-2.82751 -0.370968,-0.558887 -0.382224,-0.644099 -0.134512,-1.018134 0.247727,-0.374052 0.232512,-0.588721 -0.06362,-0.897823 -0.295697,-0.308639 -0.512851,-0.324473 -0.984343,-0.07177 -0.390607,0.209354 -0.290934,0.238021 -1.386644,-0.39883 -0.577472,-0.335638 -1.934702,-0.801775 -2.346313,-0.805834 -0.292799,-0.0029 -0.376239,-0.136296 -0.53697,-0.858532 -0.0432,-0.194152 -0.111265,-0.254661 -0.286419,-0.254661 H 87.77127 v 3.672118 c 2.468733,0 4.618691,1.390061 4.618691,4.615955 0,3.225894 -3.116895,4.630208 -4.618691,4.630208 v 1.875235 c -0.02362,1.582677 0.0065,1.690026 0.164605,1.690026 0.09283,0 0.218782,-0.05001 0.279902,-0.111125 z m 3.714435,-8.084344 c 0,-2.108208 -1.115918,-4.075423 -3.805326,-4.120886 H 87.77127 v 8.241772 l 0.300962,-5.6e-4 c 1.681679,-0.107443 3.857973,-2.012118 3.857973,-4.120326 z m -12.005709,3.102239 c -1.16801,-2.497567 -1.714979,-4.747881 -1.645153,-7.639843 l 0.787135,-0.197978 c 1.608369,-0.387073 3.161199,-1.188939 4.352397,-1.944943 0.801491,-0.508674 2.032947,-1.526356 2.889823,-2.255835 0.01497,-3.1e-5 0.0122,0.216805 -0.0062,0.481859 -0.03816,0.551233 -0.198067,0.841031 -0.62068,1.124834 -0.163103,0.10953 -0.68691,0.473322 -1.164016,0.808425 -1.302046,0.908703 -2.765921,1.713596 -4.161756,2.175589 -0.581959,0.189441 -1.106136,0.381754 -1.164841,0.427361 -0.207347,0.161091 0.129093,3.099594 0.49103,4.288709 0.442906,1.455131 1.23235,3.23059 1.478447,3.325026 0.07054,0.02707 0.128247,0.09703 0.128247,0.155468 0,0.278894 1.63771,2.190677 2.308445,2.694765 0.771025,0.579462 1.388475,0.975171 1.997296,1.280024 l 0.69486,0.324763 v 0.873109 C 82.711609,70.57023 80.845193,68.152864 79.924485,66.184104 Z m 5.722255,3.67649 C 82.25519,67.990235 80.2313,63.489345 80.085375,60.16077 l -2.78e-4,-0.328178 0.810287,-0.263369 c 2.024798,-0.708552 3.717332,-1.818746 5.391816,-3.036964 l 0.0024,13.62931 c -0.252203,-0.108472 -0.441826,-0.201278 -0.642826,-0.300975 z"
       id="path2948"
       inkscape:connector-curvature="0"
       sodipodi:nodetypes="ccssssssssssccsccccsccccccssccccccscccccccccscsscczccscczcccczsccsccccccscsssccscccccccc" />
  </g>
</svg>
